<svg xmlns="http://www.w3.org/2000/svg" width="96.999" height="97.001" viewBox="0 0 96.999 97.001">
  <g id="Grupo_938" data-name="Grupo 938" transform="translate(-623.001 -519)">
    <path id="Subtração_1" data-name="Subtração 1" d="M1514.5-6458a48.188,48.188,0,0,1-18.878-3.812,48.334,48.334,0,0,1-15.416-10.395,48.342,48.342,0,0,1-10.394-15.416A48.2,48.2,0,0,1,1466-6506.5a48.2,48.2,0,0,1,3.811-18.878,48.336,48.336,0,0,1,10.394-15.416,48.334,48.334,0,0,1,15.416-10.395A48.187,48.187,0,0,1,1514.5-6555a48.191,48.191,0,0,1,18.879,3.812,48.333,48.333,0,0,1,15.417,10.395,48.338,48.338,0,0,1,10.394,15.416A48.2,48.2,0,0,1,1563-6506.5a48.2,48.2,0,0,1-3.811,18.878,48.338,48.338,0,0,1-10.394,15.416,48.336,48.336,0,0,1-15.417,10.395A48.191,48.191,0,0,1,1514.5-6458Zm-.011-75.493a26.782,26.782,0,0,0-26.751,26.752,26.836,26.836,0,0,0,3.567,13.375l-3.8,13.858,14.184-3.723a26.738,26.738,0,0,0,12.786,3.254h.012a26.91,26.91,0,0,0,27-26.752,26.763,26.763,0,0,0-8.086-18.918A26.538,26.538,0,0,0,1514.488-6533.493Zm0,49.009a22.184,22.184,0,0,1-11.326-3.1l-.808-.482-8.411,2.206,2.241-8.206-.53-.844a22.189,22.189,0,0,1-3.4-11.833,22.264,22.264,0,0,1,22.245-22.233,22.044,22.044,0,0,1,15.714,6.52,23.648,23.648,0,0,1,4.957,7.211,20.982,20.982,0,0,1,1.8,8.514,21.674,21.674,0,0,1-1.79,8.651,22.33,22.33,0,0,1-4.857,7.071,22.672,22.672,0,0,1-7.155,4.772A22.3,22.3,0,0,1,1514.488-6484.484Zm-9.484-34.6a2.454,2.454,0,0,0-1.783.831l-.136.147a7.389,7.389,0,0,0-2.2,5.433c0,2.79,1.689,5.506,2.7,6.877l.028.039c.024.032.069.1.126.178,1.885,2.7,5.859,7.568,11.3,9.921,3,1.3,4.816,1.8,6.462,1.8a10.376,10.376,0,0,0,1.563-.128c1.226-.183,3.935-1.563,4.507-3.182a5.585,5.585,0,0,0,.385-3.182c-.131-.251-.458-.407-.953-.644-.1-.046-.2-.1-.312-.15-.714-.363-3.954-1.953-4.567-2.17a2.19,2.19,0,0,0-.718-.175.926.926,0,0,0-.789.513c-.489.742-1.951,2.432-2.117,2.623l0,0a.926.926,0,0,1-.723.385,1.641,1.641,0,0,1-.723-.215c-3.919-1.959-6.487-3.472-9.1-7.954-.382-.656-.123-.926.392-1.465a8.189,8.189,0,0,0,1.573-2.186,1.253,1.253,0,0,0-.061-1.17c-.123-.245-.888-2.11-1.447-3.472-.238-.58-.457-1.114-.614-1.493-.476-1.142-.973-1.142-1.3-1.142h-.048c-.054,0-.105,0-.155,0C1505.9-6519.08,1505.442-6519.08,1505-6519.08Z" transform="translate(-843 7074)" fill="#0d3671"/>
  </g>
</svg>
