<svg xmlns="http://www.w3.org/2000/svg" width="67.256" height="53.556" viewBox="0 0 67.256 53.556">
  <path id="gears" d="M33.295,21.626a2.358,2.358,0,0,0,.664-2.676,18.311,18.311,0,0,0-.813-1.659l-.332-.578c-.321-.535-.674-1.06-1.049-1.563a2.346,2.346,0,0,0-2.644-.76l-3.018,1a13.565,13.565,0,0,0-3.875-2.237l-.653-3.1a2.34,2.34,0,0,0-1.98-1.905A15.907,15.907,0,0,0,17.442,8h-.075a17.864,17.864,0,0,0-2.151.128,2.352,2.352,0,0,0-1.98,1.905l-.653,3.115a13.671,13.671,0,0,0-3.875,2.237L5.679,14.4a2.346,2.346,0,0,0-2.644.76c-.375.5-.728,1.028-1.06,1.563l-.321.567a17.211,17.211,0,0,0-.813,1.67A2.366,2.366,0,0,0,1.5,21.637L3.88,23.756A13.786,13.786,0,0,0,3.7,25.983,14.02,14.02,0,0,0,3.88,28.22L1.5,30.339a2.358,2.358,0,0,0-.664,2.676c.246.567.514,1.124.813,1.67l.321.557A15.41,15.41,0,0,0,3.035,36.8a2.346,2.346,0,0,0,2.644.76l3.018-1a13.565,13.565,0,0,0,3.875,2.237l.653,3.115a2.34,2.34,0,0,0,1.98,1.905,18.625,18.625,0,0,0,4.367,0,2.352,2.352,0,0,0,1.98-1.905l.653-3.115a13.671,13.671,0,0,0,3.875-2.237l3.018,1a2.346,2.346,0,0,0,2.644-.76,17.3,17.3,0,0,0,1.049-1.563l.332-.578A18.315,18.315,0,0,0,33.937,33a2.366,2.366,0,0,0-.664-2.676L30.9,28.209a13.843,13.843,0,0,0,0-4.474l2.376-2.119ZM12.262,25.983A5.138,5.138,0,1,1,17.4,31.12,5.138,5.138,0,0,1,12.262,25.983ZM54.3,60.717a2.358,2.358,0,0,0,2.676.664,18.306,18.306,0,0,0,1.659-.813l.578-.332c.535-.321,1.06-.674,1.563-1.049a2.346,2.346,0,0,0,.76-2.644l-1-3.018a13.565,13.565,0,0,0,2.237-3.875L65.888,49a2.34,2.34,0,0,0,1.905-1.98,18.623,18.623,0,0,0,0-4.367,2.352,2.352,0,0,0-1.905-1.98L62.773,40a13.671,13.671,0,0,0-2.237-3.875l1-3.018a2.346,2.346,0,0,0-.76-2.644c-.5-.375-1.028-.728-1.563-1.06l-.567-.321a17.21,17.21,0,0,0-1.67-.813,2.366,2.366,0,0,0-2.676.664l-2.119,2.376a13.842,13.842,0,0,0-4.474,0l-2.119-2.376a2.358,2.358,0,0,0-2.676-.664c-.567.246-1.124.514-1.67.813l-.557.321a15.41,15.41,0,0,0-1.563,1.06,2.346,2.346,0,0,0-.76,2.644l1,3.018A13.564,13.564,0,0,0,37.116,40L34,40.647a2.34,2.34,0,0,0-1.905,1.98,18.625,18.625,0,0,0,0,4.367A2.352,2.352,0,0,0,34,48.974l3.115.653A13.671,13.671,0,0,0,39.353,53.5l-1,3.019a2.346,2.346,0,0,0,.76,2.644,17.3,17.3,0,0,0,1.563,1.049l.578.332a18.316,18.316,0,0,0,1.659.813,2.366,2.366,0,0,0,2.676-.664l2.119-2.376a13.842,13.842,0,0,0,4.474,0L54.306,60.7ZM49.939,39.684A5.138,5.138,0,1,1,44.8,44.821a5.138,5.138,0,0,1,5.138-5.138Z" transform="translate(-0.666 -8)" fill="#0d3671"/>
</svg>
