<svg xmlns="http://www.w3.org/2000/svg" width="60.81" height="51.575" viewBox="0 0 60.81 51.575">
  <path id="server" d="M7.6,32A7.494,7.494,0,0,0,0,39.368v7.368A7.494,7.494,0,0,0,7.6,54.1H53.209a7.494,7.494,0,0,0,7.6-7.368V39.368A7.494,7.494,0,0,0,53.209,32Zm33.255,8.289a2.764,2.764,0,1,1-2.85,2.763A2.808,2.808,0,0,1,40.857,40.289Zm5.7,2.763a2.852,2.852,0,1,1,2.85,2.763A2.808,2.808,0,0,1,46.558,43.052ZM7.6,61.472A7.494,7.494,0,0,0,0,68.839v7.368a7.494,7.494,0,0,0,7.6,7.368H53.209a7.494,7.494,0,0,0,7.6-7.368V68.839a7.494,7.494,0,0,0-7.6-7.368ZM40.857,69.76a2.764,2.764,0,1,1-2.85,2.763A2.808,2.808,0,0,1,40.857,69.76Zm6.651,2.763a2.852,2.852,0,1,1,2.85,2.763A2.808,2.808,0,0,1,47.508,72.523Z" transform="translate(0 -32)" fill="#0d3671"/>
</svg>
