<svg xmlns="http://www.w3.org/2000/svg" width="67.009" height="53.607" viewBox="0 0 67.009 53.607">
  <path id="users" d="M15.077,0A8.376,8.376,0,1,1,6.7,8.376,8.376,8.376,0,0,1,15.077,0Zm38.53,0a8.376,8.376,0,1,1-8.376,8.376A8.376,8.376,0,0,1,53.607,0ZM0,31.274A11.176,11.176,0,0,1,11.172,20.1h4.471a11.231,11.231,0,0,1,4.67,1.016,13.176,13.176,0,0,0-.2,2.335A13.406,13.406,0,0,0,24.647,33.5H2.23A2.239,2.239,0,0,1,0,31.274ZM42.436,33.5h-.073A13.37,13.37,0,0,0,46.9,23.453a14.34,14.34,0,0,0-.2-2.335,11.07,11.07,0,0,1,4.67-1.016h4.471A11.176,11.176,0,0,1,67.009,31.274a2.232,2.232,0,0,1-2.23,2.23ZM23.453,23.453A10.051,10.051,0,1,1,33.5,33.5,10.051,10.051,0,0,1,23.453,23.453ZM13.4,50.812A13.959,13.959,0,0,1,27.359,36.855H39.651A13.959,13.959,0,0,1,53.607,50.812a2.8,2.8,0,0,1-2.8,2.8H16.2A2.8,2.8,0,0,1,13.4,50.812Z" fill="#0d3671"/>
</svg>
